<svg width="130" height="48" viewBox="0 0 130 48" fill="none" xmlns="http://www.w3.org/2000/svg">
<path d="M14.2609 8.192C16.4449 8.248 18.1809 8.63067 19.4689 9.34C20.7756 10.0307 21.7089 10.9267 22.2689 12.028C22.8476 13.1293 23.1369 14.3333 23.1369 15.64C23.1369 16.48 22.9876 17.3387 22.6889 18.216C22.4089 19.0933 21.9236 19.9053 21.2329 20.652C20.5609 21.38 19.6556 21.9773 18.5169 22.444C17.3782 22.9107 15.9596 23.1627 14.2609 23.2V26.28H10.4529V23.2C8.73556 23.1627 7.29823 22.9107 6.14089 22.444C5.00223 21.9773 4.09689 21.3707 3.42489 20.624C2.75289 19.8773 2.27689 19.0747 1.99689 18.216C1.71689 17.3387 1.57689 16.48 1.57689 15.64C1.57689 14.3333 1.85689 13.1293 2.41689 12.028C2.99556 10.9267 3.92889 10.0307 5.21689 9.34C6.52356 8.63067 8.26889 8.248 10.4529 8.192V5.728H14.2609V8.192ZM10.4529 11.496C8.64223 11.5707 7.37289 11.9907 6.64489 12.756C5.91689 13.5027 5.55289 14.4547 5.55289 15.612C5.55289 16.8627 5.94489 17.88 6.7289 18.664C7.5129 19.4293 8.75423 19.8493 10.4529 19.924V11.496ZM14.2609 19.924C15.9782 19.8493 17.2196 19.4293 17.9849 18.664C18.7689 17.88 19.1609 16.8627 19.1609 15.612C19.1609 14.4547 18.7969 13.5027 18.0689 12.756C17.3596 11.9907 16.0902 11.5707 14.2609 11.496V19.924ZM33.3107 6.008C35.8867 6.008 37.7627 6.568 38.9387 7.688C40.1334 8.78933 40.7307 10.3107 40.7307 12.252C40.7307 13.4093 40.4881 14.5013 40.0027 15.528C39.5174 16.536 38.7054 17.348 37.5667 17.964C36.4467 18.58 34.9161 18.888 32.9747 18.888H31.1547V26H26.9267V6.008H33.3107ZM33.0867 9.48H31.1547V15.416H32.5547C33.7494 15.416 34.6921 15.1827 35.3827 14.716C36.0921 14.2307 36.4467 13.456 36.4467 12.392C36.4467 10.4507 35.3267 9.48 33.0867 9.48ZM56.0168 26H44.5088V6.008H56.0168V9.48H48.7368V13.876H55.5128V17.348H48.7368V22.5H56.0168V26ZM85.3207 26H60.1767V6.008H64.4047V22.472H70.6207V6.008H74.8767V22.472H81.0927V6.008H85.3207V26ZM108.508 15.976C108.508 18.048 108.163 19.8587 107.472 21.408C106.8 22.9387 105.764 24.1333 104.364 24.992C102.964 25.8507 101.172 26.28 98.9882 26.28C96.8229 26.28 95.0309 25.8507 93.6122 24.992C92.2122 24.1333 91.1669 22.9293 90.4762 21.38C89.8042 19.8307 89.4682 18.02 89.4682 15.948C89.4682 13.876 89.8042 12.0747 90.4762 10.544C91.1669 9.01333 92.2122 7.828 93.6122 6.988C95.0309 6.12933 96.8322 5.7 99.0162 5.7C101.182 5.7 102.964 6.12933 104.364 6.988C105.764 7.828 106.8 9.02267 107.472 10.572C108.163 12.1027 108.508 13.904 108.508 15.976ZM93.9202 15.976C93.9202 18.0667 94.3216 19.7187 95.1242 20.932C95.9269 22.1267 97.2149 22.724 98.9882 22.724C100.799 22.724 102.096 22.1267 102.88 20.932C103.664 19.7187 104.056 18.0667 104.056 15.976C104.056 13.8667 103.664 12.2147 102.88 11.02C102.096 9.82533 100.808 9.228 99.0162 9.228C97.2242 9.228 95.9269 9.82533 95.1242 11.02C94.3216 12.2147 93.9202 13.8667 93.9202 15.976ZM128.945 26H124.129L116.877 15.864V26H112.649V6.008H116.877V15.696L124.045 6.008H128.553L121.273 15.612L128.945 26Z" fill="#63A60E"/>
<path d="M19.1165 39.704C19.1165 40.592 18.9685 41.368 18.6725 42.032C18.3845 42.688 17.9405 43.2 17.3405 43.568C16.7405 43.936 15.9725 44.12 15.0365 44.12C14.1085 44.12 13.3405 43.936 12.7325 43.568C12.1325 43.2 11.6845 42.684 11.3885 42.02C11.1005 41.356 10.9565 40.58 10.9565 39.692C10.9565 38.804 11.1005 38.032 11.3885 37.376C11.6845 36.72 12.1325 36.212 12.7325 35.852C13.3405 35.484 14.1125 35.3 15.0485 35.3C15.9765 35.3 16.7405 35.484 17.3405 35.852C17.9405 36.212 18.3845 36.724 18.6725 37.388C18.9685 38.044 19.1165 38.816 19.1165 39.704ZM12.8645 39.704C12.8645 40.6 13.0365 41.308 13.3805 41.828C13.7245 42.34 14.2765 42.596 15.0365 42.596C15.8125 42.596 16.3685 42.34 16.7045 41.828C17.0405 41.308 17.2085 40.6 17.2085 39.704C17.2085 38.8 17.0405 38.092 16.7045 37.58C16.3685 37.068 15.8165 36.812 15.0485 36.812C14.2805 36.812 13.7245 37.068 13.3805 37.58C13.0365 38.092 12.8645 38.8 12.8645 39.704ZM27.9113 44H26.0993V40.304H22.7033V44H20.8913V35.432H22.7033V38.792H26.0993V35.432H27.9113V44ZM36.8471 44H35.0351V36.944H32.9351C32.8871 37.312 32.8351 37.712 32.7791 38.144C32.7311 38.576 32.6751 39.016 32.6111 39.464C32.5551 39.904 32.4951 40.324 32.4311 40.724C32.3671 41.116 32.3031 41.464 32.2391 41.768C32.1351 42.264 31.9951 42.688 31.8191 43.04C31.6511 43.392 31.4151 43.66 31.1111 43.844C30.8151 44.028 30.4271 44.12 29.9471 44.12C29.6351 44.12 29.3471 44.076 29.0831 43.988V42.5C29.1871 42.532 29.2871 42.56 29.3831 42.584C29.4871 42.608 29.5991 42.62 29.7191 42.62C29.9511 42.62 30.1271 42.5 30.2471 42.26C30.3751 42.012 30.5031 41.552 30.6311 40.88C30.6791 40.624 30.7471 40.224 30.8351 39.68C30.9231 39.136 31.0191 38.5 31.1231 37.772C31.2351 37.036 31.3391 36.256 31.4351 35.432H36.8471V44ZM44.2525 44L43.6285 41.96H40.5085L39.8845 44H37.9285L40.9525 35.396H43.1725L46.2085 44H44.2525ZM42.5725 38.444C42.5325 38.308 42.4805 38.136 42.4165 37.928C42.3525 37.72 42.2885 37.508 42.2245 37.292C42.1605 37.076 42.1085 36.888 42.0685 36.728C42.0285 36.888 41.9725 37.088 41.9005 37.328C41.8365 37.56 41.7725 37.784 41.7085 38C41.6525 38.208 41.6085 38.356 41.5765 38.444L40.9645 40.436H43.1965L42.5725 38.444ZM54.1936 32.612C54.1536 33.028 54.0376 33.396 53.8456 33.716C53.6536 34.028 53.3536 34.272 52.9456 34.448C52.5376 34.624 51.9896 34.712 51.3016 34.712C50.5976 34.712 50.0456 34.628 49.6456 34.46C49.2536 34.284 48.9736 34.04 48.8056 33.728C48.6376 33.416 48.5376 33.044 48.5056 32.612H50.1016C50.1416 33.052 50.2536 33.344 50.4376 33.488C50.6216 33.632 50.9216 33.704 51.3376 33.704C51.6816 33.704 51.9616 33.628 52.1776 33.476C52.4016 33.316 52.5336 33.028 52.5736 32.612H54.1936ZM47.2936 35.432H48.9256V39.572C48.9256 39.772 48.9216 39.996 48.9136 40.244C48.9056 40.492 48.8976 40.736 48.8896 40.976C48.8816 41.208 48.8736 41.412 48.8656 41.588C48.8576 41.756 48.8496 41.872 48.8416 41.936H48.8776L52.8376 35.432H55.0096V44H53.3896V39.884C53.3896 39.668 53.3936 39.432 53.4016 39.176C53.4096 38.912 53.4176 38.66 53.4256 38.42C53.4416 38.18 53.4536 37.972 53.4616 37.796C53.4776 37.612 53.4896 37.492 53.4976 37.436H53.4496L49.4776 44H47.2936V35.432ZM64.1925 44H62.3805V40.304H58.9845V44H57.1725V35.432H58.9845V38.792H62.3805V35.432H64.1925V44ZM65.8563 41.426C65.8283 41.322 65.8103 41.21 65.8023 41.09C65.7943 40.97 65.7903 40.868 65.7903 40.784C65.7903 40.7 65.7943 40.598 65.8023 40.478C65.8103 40.358 65.8283 40.244 65.8563 40.136H69.0423C69.0703 40.244 69.0883 40.358 69.0963 40.478C69.1043 40.598 69.1083 40.7 69.1083 40.784C69.1083 40.868 69.1043 40.97 69.0963 41.09C69.0883 41.21 69.0703 41.322 69.0423 41.426H65.8563ZM74.3317 44L72.2677 37.28H72.2197C72.2277 37.44 72.2397 37.68 72.2557 38C72.2717 38.32 72.2877 38.664 72.3037 39.032C72.3197 39.392 72.3277 39.72 72.3277 40.016V44H70.7077V35.432H73.1797L75.2077 41.984H75.2437L77.3917 35.432H79.8637V44H78.1717V39.944C78.1717 39.672 78.1757 39.36 78.1837 39.008C78.1997 38.656 78.2117 38.324 78.2197 38.012C78.2357 37.692 78.2477 37.452 78.2557 37.292H78.2077L75.9997 44H74.3317ZM87.272 44L86.648 41.96H83.528L82.904 44H80.948L83.972 35.396H86.192L89.228 44H87.272ZM85.592 38.444C85.552 38.308 85.5 38.136 85.436 37.928C85.372 37.72 85.308 37.508 85.244 37.292C85.18 37.076 85.128 36.888 85.088 36.728C85.048 36.888 84.992 37.088 84.92 37.328C84.856 37.56 84.792 37.784 84.728 38C84.672 38.208 84.628 38.356 84.596 38.444L83.984 40.436H86.216L85.592 38.444ZM93.0492 35.432C94.1532 35.432 94.9572 35.672 95.4612 36.152C95.9732 36.624 96.2292 37.276 96.2292 38.108C96.2292 38.604 96.1252 39.072 95.9172 39.512C95.7092 39.944 95.3612 40.292 94.8732 40.556C94.3932 40.82 93.7372 40.952 92.9052 40.952H92.1252V44H90.3132V35.432H93.0492ZM92.9532 36.92H92.1252V39.464H92.7252C93.2372 39.464 93.6412 39.364 93.9372 39.164C94.2412 38.956 94.3932 38.624 94.3932 38.168C94.3932 37.336 93.9132 36.92 92.9532 36.92ZM104.832 44H102.768L99.6603 39.656V44H97.8483V35.432H99.6603V39.584L102.732 35.432H104.664L101.544 39.548L104.832 44ZM110.843 44H105.911V35.432H110.843V36.92H107.723V38.804H110.627V40.292H107.723V42.5H110.843V44ZM115.926 44H114.114V36.944H111.786V35.432H118.254V36.944H115.926V44Z" fill="#63A60E"/>
</svg>
