<svg width="16" height="12" viewBox="0 0 16 12" fill="none" xmlns="http://www.w3.org/2000/svg">
<path d="M15.8989 2.01937C15.8113 1.9099 15.6787 1.84619 15.5385 1.84619H3.25476L2.91126 0.35775C2.86292 0.148344 2.67645 0 2.46154 0H0.461546C0.206671 0 1.52588e-05 0.206656 1.52588e-05 0.461562C1.52588e-05 0.716468 0.206671 0.923093 0.461546 0.923093H2.09439L4.42601 11.0269C4.47432 11.2363 4.66082 11.3846 4.87573 11.3846H14.1231C14.378 11.3846 14.5846 11.178 14.5846 10.9231C14.5846 10.6682 14.3779 10.4616 14.1231 10.4616H5.24292L4.88792 8.92309H14.1539C14.3698 8.92309 14.5568 8.77346 14.6042 8.56287L15.9888 2.40903C16.0195 2.27222 15.9865 2.12887 15.8989 2.01937ZM13.7846 7.99999H4.67489L3.46779 2.76925H14.9615L13.7846 7.99999Z" fill="white"/>
</svg>
