<svg width="104" height="16" viewBox="0 0 104 16" fill="none" xmlns="http://www.w3.org/2000/svg">
<g clip-path="url(#clip0)">
<path d="M0.0229731 6.16426C0.0780973 5.99454 0.224753 5.87085 0.401315 5.84523L5.36139 5.12445L7.57966 0.629872C7.6586 0.469872 7.82157 0.368591 7.99997 0.368591C8.17841 0.368591 8.34135 0.469872 8.42032 0.629872L10.6387 5.12445L15.5987 5.84523C15.7752 5.87085 15.9219 5.99454 15.977 6.16422C16.0322 6.33394 15.9862 6.52022 15.8584 6.64475L12.2694 10.1433L13.1165 15.0834C13.1467 15.2593 13.0744 15.4369 12.9301 15.5418C12.8484 15.6012 12.7517 15.6313 12.6545 15.6313C12.5799 15.6313 12.505 15.6136 12.4365 15.5775L8 13.2451L3.56374 15.5775C3.40577 15.6605 3.21443 15.6467 3.07009 15.5418C2.92574 15.4369 2.8534 15.2592 2.88356 15.0833L3.73096 10.1433L0.141566 6.64472C0.0138168 6.52022 -0.0322151 6.33394 0.0229731 6.16426Z" fill="#FFB800"/>
</g>
<g clip-path="url(#clip1)">
<path d="M22.023 6.16426C22.0781 5.99454 22.2248 5.87085 22.4013 5.84523L27.3614 5.12445L29.5797 0.629872C29.6586 0.469872 29.8216 0.368591 30 0.368591C30.1784 0.368591 30.3413 0.469872 30.4203 0.629872L32.6387 5.12445L37.5987 5.84523C37.7752 5.87085 37.9219 5.99454 37.977 6.16422C38.0322 6.33394 37.9862 6.52022 37.8584 6.64475L34.2694 10.1433L35.1165 15.0834C35.1467 15.2593 35.0744 15.4369 34.9301 15.5418C34.8484 15.6012 34.7517 15.6313 34.6545 15.6313C34.5799 15.6313 34.505 15.6136 34.4365 15.5775L30 13.2451L25.5637 15.5775C25.4058 15.6605 25.2144 15.6467 25.0701 15.5418C24.9257 15.4369 24.8534 15.2592 24.8836 15.0833L25.731 10.1433L22.1416 6.64472C22.0138 6.52022 21.9678 6.33394 22.023 6.16426Z" fill="#FFB800"/>
</g>
<g clip-path="url(#clip2)">
<path d="M44.023 6.16426C44.0781 5.99454 44.2248 5.87085 44.4013 5.84523L49.3614 5.12445L51.5797 0.629872C51.6586 0.469872 51.8216 0.368591 52 0.368591C52.1784 0.368591 52.3413 0.469872 52.4203 0.629872L54.6387 5.12445L59.5987 5.84523C59.7752 5.87085 59.9219 5.99454 59.977 6.16422C60.0322 6.33394 59.9862 6.52022 59.8584 6.64475L56.2694 10.1433L57.1165 15.0834C57.1467 15.2593 57.0744 15.4369 56.9301 15.5418C56.8484 15.6012 56.7517 15.6313 56.6545 15.6313C56.5799 15.6313 56.505 15.6136 56.4365 15.5775L52 13.2451L47.5637 15.5775C47.4058 15.6605 47.2144 15.6467 47.0701 15.5418C46.9257 15.4369 46.8534 15.2592 46.8836 15.0833L47.731 10.1433L44.1416 6.64472C44.0138 6.52022 43.9678 6.33394 44.023 6.16426Z" fill="#FFB800"/>
</g>
<g clip-path="url(#clip3)">
<path d="M66.023 6.16426C66.0781 5.99454 66.2248 5.87085 66.4013 5.84523L71.3614 5.12445L73.5797 0.629872C73.6586 0.469872 73.8216 0.368591 74 0.368591C74.1784 0.368591 74.3413 0.469872 74.4203 0.629872L76.6387 5.12445L81.5987 5.84523C81.7752 5.87085 81.9219 5.99454 81.977 6.16422C82.0322 6.33394 81.9862 6.52022 81.8584 6.64475L78.2694 10.1433L79.1165 15.0834C79.1467 15.2593 79.0744 15.4369 78.9301 15.5418C78.8484 15.6012 78.7517 15.6313 78.6545 15.6313C78.5799 15.6313 78.505 15.6136 78.4365 15.5775L74 13.2451L69.5637 15.5775C69.4058 15.6605 69.2144 15.6467 69.0701 15.5418C68.9257 15.4369 68.8534 15.2592 68.8836 15.0833L69.731 10.1433L66.1416 6.64472C66.0138 6.52022 65.9678 6.33394 66.023 6.16426Z" fill="#FFB800"/>
</g>
<g clip-path="url(#clip4)">
<path d="M88.023 6.16426C88.0781 5.99454 88.2248 5.87085 88.4013 5.84523L93.3614 5.12445L95.5797 0.629872C95.6586 0.469872 95.8216 0.368591 96 0.368591C96.1784 0.368591 96.3413 0.469872 96.4203 0.629872L98.6387 5.12445L103.599 5.84523C103.775 5.87085 103.922 5.99454 103.977 6.16422C104.032 6.33394 103.986 6.52022 103.858 6.64475L100.269 10.1433L101.117 15.0834C101.147 15.2593 101.074 15.4369 100.93 15.5418C100.848 15.6012 100.752 15.6313 100.655 15.6313C100.58 15.6313 100.505 15.6136 100.436 15.5775L96 13.2451L91.5637 15.5775C91.4058 15.6605 91.2144 15.6467 91.0701 15.5418C90.9257 15.4369 90.8534 15.2592 90.8836 15.0833L91.731 10.1433L88.1416 6.64472C88.0138 6.52022 87.9678 6.33394 88.023 6.16426Z" fill="#C1C1C1" fill-opacity="0.3"/>
</g>
<defs>
<clipPath id="clip0">
<rect width="16" height="16" fill="white" transform="matrix(-1 0 0 1 16 0)"/>
</clipPath>
<clipPath id="clip1">
<rect width="16" height="16" fill="white" transform="matrix(-1 0 0 1 38 0)"/>
</clipPath>
<clipPath id="clip2">
<rect width="16" height="16" fill="white" transform="matrix(-1 0 0 1 60 0)"/>
</clipPath>
<clipPath id="clip3">
<rect width="16" height="16" fill="white" transform="matrix(-1 0 0 1 82 0)"/>
</clipPath>
<clipPath id="clip4">
<rect width="16" height="16" fill="white" transform="matrix(-1 0 0 1 104 0)"/>
</clipPath>
</defs>
</svg>
