<svg width="18" height="18" viewBox="0 0 18 18" fill="none" xmlns="http://www.w3.org/2000/svg">
<g clip-path="url(#clip0)">
<path d="M10.0551 9.00508L17.7709 1.28922C18.0687 1.00161 18.077 0.527063 17.7894 0.229263C17.5018 -0.0685364 17.0272 -0.076794 16.7294 0.210815C16.7232 0.216833 16.7171 0.222982 16.711 0.229263L8.99508 7.94513L1.27921 0.229219C0.981408 -0.0583901 0.506861 -0.0501326 0.219251 0.247667C-0.0613304 0.538175 -0.0613304 0.99871 0.219251 1.28922L7.93512 9.00508L0.219251 16.7209C-0.0734093 17.0136 -0.0734093 17.4882 0.219251 17.7809C0.511956 18.0735 0.986503 18.0735 1.27921 17.7809L8.99508 10.065L16.7109 17.7809C17.0087 18.0685 17.4833 18.0602 17.7709 17.7625C18.0514 17.4719 18.0514 17.0114 17.7709 16.7209L10.0551 9.00508Z" fill="black"/>
</g>
<defs>
<clipPath id="clip0">
<rect width="18" height="18" fill="white"/>
</clipPath>
</defs>
</svg>
