<svg width="88" height="67" viewBox="0 0 88 67" fill="none" xmlns="http://www.w3.org/2000/svg">
<g opacity="0.5" filter="url(#filter0_d)">
<g clip-path="url(#clip0)">
<path d="M38.438 58.7011C54.5969 58.7011 67.6963 45.5604 67.6963 29.3506C67.6963 13.1407 54.5969 0 38.438 0C22.2791 0 9.17969 13.1407 9.17969 29.3506C9.17969 45.5604 22.2791 58.7011 38.438 58.7011Z" fill="#F4991D"/>
<path d="M4 16.3113L20.0688 14.6286C20.0688 14.6286 14.3155 9.96433 13.6927 7.79935C13.6927 7.79935 13.4523 6.59902 15.37 5.9687C17.2878 5.33839 25.4397 2.12107 25.4397 2.12107C25.4397 2.12107 37.1922 -1.53474 42.7051 12.8035L52.5344 11.2633V12.8035L69.7998 12.3211L70.4226 18.3338H74.739L79.9186 36.2784L57.3807 53.8395C57.3807 53.8395 52.2011 58.3119 40.8365 58.5531L7.89018 45.4207L4 16.3113Z" fill="#2F358C"/>
<path d="M15.7032 7.89263C15.7032 7.89263 22.2761 5.39331 22.8006 4.86166C23.3743 4.28616 31.1929 1.34836 36.613 6.06199C36.613 6.06199 40.4485 9.81645 41.6505 14.3382L43.9508 19.0519L45.1473 21.2662C45.1473 21.2662 45.4806 22.0829 45.1473 22.2308C44.814 22.3788 42.3663 18.4764 42.3663 18.4764L41.2626 16.8869C41.2626 16.8869 40.301 15.6372 37.5199 16.2127C34.7389 16.7882 30.4717 17.2706 27.4011 16.7444C24.3851 16.1634 17.2823 10.1015 15.7032 7.89263Z" fill="#75B947"/>
<path d="M28.1715 16.6952C25.1009 16.1635 18.0035 10.1016 16.419 7.89274C16.419 7.89274 22.9919 5.39342 23.5164 4.86176C23.806 4.57127 26.3466 3.51345 29.5101 3.42027C26.057 3.32161 23.1339 4.52742 22.7952 4.86176C22.2269 5.43726 15.7032 7.89274 15.7032 7.89274C17.2877 10.1564 24.3851 16.2183 27.4557 16.6952C28.5102 16.887 29.6631 16.9363 30.8596 16.9363C29.898 16.887 28.9856 16.8377 28.1715 16.6952Z" fill="#609744"/>
<path d="M21.4566 9.57543C21.4566 9.57543 24.478 8.08461 26.1062 9.57543C29.3189 12.5078 36.2743 14.0479 37.6183 13.7629C37.6183 13.7629 30.663 15.3524 28.6523 14.2452C26.0134 12.7982 24.4289 10.8251 21.4566 9.57543Z" fill="#609744"/>
<path d="M6.44781 18.4764L10.1905 44.215L15.7034 43.8314L14.8401 32.7653L20.353 32.283L19.6318 27.4707L14.1189 28.1942L13.6381 23.5299L20.353 22.3295L19.3914 16.1689L6.44781 18.4764ZM35.1269 20.6414L37.7659 41.6664L42.8964 41.0909L42.1752 30.5071L50.5674 40.2249L54.5505 39.7426L51.4307 14.2451L45.7703 14.8699L46.9668 25.5523L40.3994 19.5342L35.1269 20.6414Z" fill="white"/>
<g filter="url(#filter1_i)">
<path d="M40.3994 20.0166L46.9722 26.0292L46.9231 25.4975L40.3994 19.5343L35.1214 20.6414L35.1706 21.0744L40.3994 20.0166ZM51.4306 14.722L54.5013 39.7426H54.5504L51.4306 14.2451L45.7702 14.8699L45.8686 15.3523L51.4306 14.722ZM42.1751 30.984L42.8963 41.0854L42.2243 30.984H42.1751Z" fill="#CDCBE6"/>
</g>
<path d="M52.8731 15.2042L53.5889 20.8825L56.9436 20.9812L58.4789 38.6847L64.8551 38.5422L64.2322 20.4988L68.6906 20.1645L67.8274 14.0039L52.8731 15.2042Z" fill="white"/>
<g filter="url(#filter2_i)">
<path d="M53.4468 15.7798L58.0036 15.155L67.8329 13.9985L52.8677 15.1989L53.5889 20.8826H54.0697L53.4468 15.7798ZM57.5228 21.5568L56.9928 21.5075L58.4789 38.6848L59.0089 38.6355L57.5228 21.5568Z" fill="#CDCBE6"/>
</g>
<path d="M28.5104 19.293L23.0903 19.9178L20.7901 43.3982L25.1065 43.1571L26.2101 36.9033L29.3299 36.5196L31.8651 42.2911L36.4218 41.6662L28.5104 19.293ZM26.1118 32.9077L26.7346 28.8189H27.6963L29.1332 32.5733L26.1118 32.9077Z" fill="white"/>
<g filter="url(#filter3_i)">
<path d="M23.2323 20.1096L28.554 19.3423L28.5048 19.293L23.134 19.9178L20.8337 43.3489L21.7954 43.2996L23.2323 20.1096ZM32.7283 42.1431L30.0401 36.4648L29.4173 36.5635L31.865 42.2911L36.4218 41.6663V41.5238L32.7283 42.1431Z" fill="#CDCBE6"/>
</g>
<path d="M73.7338 20.8823L66.538 21.9895L66.7784 38.0103L70.614 37.6267L70.8544 33.5379L73.0126 33.2967L74.6899 36.662L78.7659 36.5195L73.7338 20.8823ZM72.0072 30.1177C70.6631 30.2164 70.3299 29.4436 70.0895 28.6763L73.2092 28.3419C73.2092 28.3364 73.3513 30.0191 72.0072 30.1177Z" fill="white"/>
<path d="M67.4996 22.3241L73.9742 21.6006L73.7338 20.8333L66.538 21.9404L66.7784 37.912H67.1117L67.4996 22.3241ZM73.8758 29.0109L73.1109 29.0602C73.0126 29.5425 72.7284 30.0687 71.9581 30.118C71.5756 30.1673 71.2368 30.0687 70.9964 29.9755C71.2368 30.4085 71.6685 30.7429 72.5809 30.7429C73.925 30.6935 73.8758 29.0109 73.8758 29.0109ZM73.4934 33.8725L73.3513 33.9218L74.6954 36.6184H74.7446L73.4934 33.8725Z" fill="#C6C3E1"/>
<g filter="url(#filter4_i)">
<path d="M7.64423 27.1855L10.3324 44.2149L11.4361 44.1162L8.31627 27.6624L7.64423 27.1855Z" fill="#CDCBE6"/>
</g>
<path d="M81.5524 34.3985L81.1208 34.4971L81.0716 34.3546L82.0769 34.1628L82.1261 34.3053L81.6945 34.4039L81.8857 35.6536L81.6945 35.7029L81.5524 34.3985ZM83.7106 34.689C83.6614 34.4971 83.6123 34.256 83.5686 34.1135C83.5686 34.3053 83.5194 34.4478 83.4702 34.689L83.3282 35.4124H83.1861L82.8528 34.7876C82.7544 34.5958 82.6616 34.4533 82.6124 34.256C82.6616 34.4478 82.6616 34.6396 82.7107 34.8808L82.7599 35.4563L82.5687 35.5056L82.4266 34.108L82.667 34.0586L83.0003 34.6835C83.0987 34.826 83.1424 34.974 83.2407 35.1165C83.2407 34.974 83.2899 34.826 83.2899 34.6341L83.432 33.9107L83.6724 33.8613L84.0057 35.2097L83.8144 35.259L83.7106 34.689Z" fill="#2F358C"/>
</g>
<rect x="4.5" y="0.5" width="79" height="57.6957" stroke="black"/>
</g>
<defs>
<filter id="filter0_d" x="0" y="0" width="88" height="66.6957" filterUnits="userSpaceOnUse" color-interpolation-filters="sRGB">
<feFlood flood-opacity="0" result="BackgroundImageFix"/>
<feColorMatrix in="SourceAlpha" type="matrix" values="0 0 0 0 0 0 0 0 0 0 0 0 0 0 0 0 0 0 127 0"/>
<feOffset dy="4"/>
<feGaussianBlur stdDeviation="2"/>
<feColorMatrix type="matrix" values="0 0 0 0 0 0 0 0 0 0 0 0 0 0 0 0 0 0 0.25 0"/>
<feBlend mode="normal" in2="BackgroundImageFix" result="effect1_dropShadow"/>
<feBlend mode="normal" in="SourceGraphic" in2="effect1_dropShadow" result="shape"/>
</filter>
<filter id="filter1_i" x="35.1214" y="14.2451" width="19.429" height="30.8403" filterUnits="userSpaceOnUse" color-interpolation-filters="sRGB">
<feFlood flood-opacity="0" result="BackgroundImageFix"/>
<feBlend mode="normal" in="SourceGraphic" in2="BackgroundImageFix" result="shape"/>
<feColorMatrix in="SourceAlpha" type="matrix" values="0 0 0 0 0 0 0 0 0 0 0 0 0 0 0 0 0 0 127 0" result="hardAlpha"/>
<feOffset dy="4"/>
<feGaussianBlur stdDeviation="2"/>
<feComposite in2="hardAlpha" operator="arithmetic" k2="-1" k3="1"/>
<feColorMatrix type="matrix" values="0 0 0 0 0 0 0 0 0 0 0 0 0 0 0 0 0 0 0.25 0"/>
<feBlend mode="normal" in2="shape" result="effect1_innerShadow"/>
</filter>
<filter id="filter2_i" x="52.8677" y="13.9985" width="14.9652" height="28.6863" filterUnits="userSpaceOnUse" color-interpolation-filters="sRGB">
<feFlood flood-opacity="0" result="BackgroundImageFix"/>
<feBlend mode="normal" in="SourceGraphic" in2="BackgroundImageFix" result="shape"/>
<feColorMatrix in="SourceAlpha" type="matrix" values="0 0 0 0 0 0 0 0 0 0 0 0 0 0 0 0 0 0 127 0" result="hardAlpha"/>
<feOffset dy="4"/>
<feGaussianBlur stdDeviation="2"/>
<feComposite in2="hardAlpha" operator="arithmetic" k2="-1" k3="1"/>
<feColorMatrix type="matrix" values="0 0 0 0 0 0 0 0 0 0 0 0 0 0 0 0 0 0 0.25 0"/>
<feBlend mode="normal" in2="shape" result="effect1_innerShadow"/>
</filter>
<filter id="filter3_i" x="20.8337" y="19.293" width="15.588" height="28.056" filterUnits="userSpaceOnUse" color-interpolation-filters="sRGB">
<feFlood flood-opacity="0" result="BackgroundImageFix"/>
<feBlend mode="normal" in="SourceGraphic" in2="BackgroundImageFix" result="shape"/>
<feColorMatrix in="SourceAlpha" type="matrix" values="0 0 0 0 0 0 0 0 0 0 0 0 0 0 0 0 0 0 127 0" result="hardAlpha"/>
<feOffset dy="4"/>
<feGaussianBlur stdDeviation="2"/>
<feComposite in2="hardAlpha" operator="arithmetic" k2="-1" k3="1"/>
<feColorMatrix type="matrix" values="0 0 0 0 0 0 0 0 0 0 0 0 0 0 0 0 0 0 0.25 0"/>
<feBlend mode="normal" in2="shape" result="effect1_innerShadow"/>
</filter>
<filter id="filter4_i" x="7.64423" y="27.1855" width="3.79183" height="21.0294" filterUnits="userSpaceOnUse" color-interpolation-filters="sRGB">
<feFlood flood-opacity="0" result="BackgroundImageFix"/>
<feBlend mode="normal" in="SourceGraphic" in2="BackgroundImageFix" result="shape"/>
<feColorMatrix in="SourceAlpha" type="matrix" values="0 0 0 0 0 0 0 0 0 0 0 0 0 0 0 0 0 0 127 0" result="hardAlpha"/>
<feOffset dy="4"/>
<feGaussianBlur stdDeviation="2"/>
<feComposite in2="hardAlpha" operator="arithmetic" k2="-1" k3="1"/>
<feColorMatrix type="matrix" values="0 0 0 0 0 0 0 0 0 0 0 0 0 0 0 0 0 0 0.25 0"/>
<feBlend mode="normal" in2="shape" result="effect1_innerShadow"/>
</filter>
<clipPath id="clip0">
<rect x="4" width="80" height="58.6957" fill="white"/>
</clipPath>
</defs>
</svg>
